# xmcd CD database file
#
# Track frame offsets:
#	150
#	26730
#	63757
#	94936
#	122540
#	152535
#	171286
#	206097
#	224676
#	250694
#	274822
#
# Disc length: 4063 seconds
#
# Revision: 1
# Processed by: cddbd v1.5PL3 Copyright (c) Steve Scherf et al.
# Submitted via: CDex 1.51
#
DISCID=9b0fdd0b
DTITLE=Ray Brown - The Best of The Concord Years
DYEAR=2002
DGENRE=Jazz
TTITLE0=Buhaina Buhaina
TTITLE1=After You've Gone
TTITLE2=Days Of Wine And Roses
TTITLE3=That's All
TTITLE4=Blues For Sam Nassi
TTITLE5=I'm Afraid The Masquerade Is Over
TTITLE6=The Real Blues
TTITLE7=Carrioca Hills
TTITLE8=Exactly Like You
TTITLE9=Georgia On My Mind
TTITLE10=Keep On Pumpin'
EXTD=YEAR: 2002
EXTT0=
EXTT1=
EXTT2=
EXTT3=
EXTT4=
EXTT5=
EXTT6=
EXTT7=
EXTT8=
EXTT9=
EXTT10=
PLAYORDER=
